HIERARCHY
ROOT Hips
{
	OFFSET 0.0000 0.0000 0.0000
	CHANNELS 6 Xposition Yposition Zposition Zrotation Xrotation Yrotation
	JOINT Ab
	{
		OFFSET -0.0000 8.1305 -0.0000
		CHANNELS 3 Zrotation Xrotation Yrotation
		JOINT Chest
		{
			OFFSET -0.0000 26.2902 -0.0000
			CHANNELS 3 Zrotation Xrotation Yrotation
			JOINT Neck
			{
				OFFSET -0.0000 26.2902 0.0000
				CHANNELS 3 Zrotation Xrotation Yrotation
				JOINT Head
				{
					OFFSET -0.0000 10.8167 0.0000
					CHANNELS 3 Zrotation Xrotation Yrotation
					End Site
					{
						OFFSET -0.0000 16.7167 0.0000
					}
				}
			}
			JOINT LeftCollar
			{
				OFFSET -0.0000 26.2902 0.0000
				CHANNELS 3 Zrotation Xrotation Yrotation
				JOINT LeftShoulder
				{
					OFFSET 19.6667 -0.0000 0.0000
					CHANNELS 3 Zrotation Xrotation Yrotation
					JOINT LeftElbow
					{
						OFFSET 27.2190 0.0000 0.0000
						CHANNELS 3 Zrotation Xrotation Yrotation
						JOINT LeftWrist
						{
							OFFSET 30.7431 0.0000 0.0000
							CHANNELS 3 Zrotation Xrotation Yrotation
							End Site
							{
								OFFSET 0.0000 -14.7500 0.0000
							}
						}
					}
				}
			}
			JOINT RightCollar
			{
				OFFSET -0.0000 26.2902 0.0000
				CHANNELS 3 Zrotation Xrotation Yrotation
				JOINT RightShoulder
				{
					OFFSET -19.6667 0.0000 0.0000
					CHANNELS 3 Zrotation Xrotation Yrotation
					JOINT RightElbow
					{
						OFFSET -27.2190 0.0000 0.0000
						CHANNELS 3 Zrotation Xrotation Yrotation
						JOINT RightWrist
						{
							OFFSET -30.7431 0.0000 0.0000
							CHANNELS 3 Zrotation Xrotation Yrotation
							End Site
							{
								OFFSET -0.0000 -14.7500 0.0000
							}
						}
					}
				}
			}
		}
	}
	JOINT LeftHip
	{
		OFFSET 11.8000 0.0000 0.0000
		CHANNELS 3 Zrotation Xrotation Yrotation
		JOINT LeftKnee
		{
			OFFSET -0.0000 -39.7832 0.0000
			CHANNELS 3 Zrotation Xrotation Yrotation
			JOINT LeftAnkle
			{
				OFFSET -0.0000 -41.7317 0.0000
				CHANNELS 3 Zrotation Xrotation Yrotation
				End Site
				{
					OFFSET -0.0000 -4.9167 16.7167
				}
			}
		}
	}
	JOINT RightHip
	{
		OFFSET -11.8000 0.0000 0.0000
		CHANNELS 3 Zrotation Xrotation Yrotation
		JOINT RightKnee
		{
			OFFSET -0.0000 -39.7832 0.0000
			CHANNELS 3 Zrotation Xrotation Yrotation
			JOINT RightAnkle
			{
				OFFSET -0.0000 -41.7317 0.0000
				CHANNELS 3 Zrotation Xrotation Yrotation
				End Site
				{
					OFFSET -0.0000 -4.9167 16.7167
				}
			}
		}
	}
}
MOTION
Frames: 17
Frame Time: 0.010000
-11.1964 84.7361 78.4671 354.0027 347.8462 198.0945 359.3850 348.3297 357.3968 359.4941 18.1872 357.5477 345.7666 346.7111 351.8732 5.5854 9.9174 353.0482 338.3492 357.0563 15.1869 334.2803 56.3250 326.0361 18.9768 347.5701 294.5355 94.9032 351.2009 354.9452 24.7351 355.9975 342.0602 54.4656 39.7220 355.6157 328.9432 340.2151 63.3517 267.0409 348.6474 351.3010 357.4950 16.0141 1.4921 357.6036 6.5112 2.0494 345.8468 341.7786 9.9529 330.9385 323.5715 359.1979 18.8092 28.6502 6.4342 355.6522 344.7878 313.9383 
-11.0152 84.6139 77.5463 353.9016 347.4666 198.2441 359.5072 348.1970 357.4622 359.5944 18.2736 357.5862 345.5952 346.9801 351.7455 5.5515 9.1641 352.9472 338.1953 357.0541 15.0345 334.4027 56.6959 325.7888 19.1695 347.5834 295.4670 95.0422 351.1590 355.1814 25.0147 355.9390 342.0661 54.0939 40.0418 355.9932 328.6786 340.4018 62.2719 267.0223 348.4195 351.1130 357.5238 15.8056 1.3095 357.8211 7.1471 2.1801 345.1952 342.1637 10.1063 330.3595 323.0005 358.4741 19.8402 30.2788 6.7245 355.4004 344.9201 313.6609 
-10.7801 84.5298 76.6297 353.9532 347.2291 198.2662 359.8425 348.1525 357.5737 359.6151 18.4479 357.6610 345.4695 347.1237 351.6424 5.5737 8.5035 352.8695 337.9029 357.0340 14.9203 334.2095 56.3534 326.0515 19.0240 348.0298 296.0448 95.4812 351.3055 355.6118 25.3661 355.8959 342.2382 53.6804 40.4252 356.3921 328.3514 340.5948 61.0657 266.7364 348.4971 351.1334 357.7484 15.6354 1.1454 357.9620 7.9049 2.1092 344.6468 342.5576 10.5197 329.9335 322.1886 358.0682 21.4483 32.1845 6.9147 355.5693 343.7009 312.4103 
-10.4880 84.4938 75.6632 354.2100 347.1371 198.1311 0.2996 348.0867 357.7595 359.7690 18.8136 357.7787 345.3002 347.2064 351.5104 5.6885 7.8076 352.7706 337.7505 357.0384 14.7864 333.6828 56.1601 326.4845 18.9698 348.1821 296.6607 95.4688 351.1668 354.9903 25.6096 355.8829 342.4247 53.2655 41.0263 356.9886 327.7550 340.6713 59.5110 266.8950 348.1771 351.0405 358.2360 15.5690 1.4468 358.0489 8.6328 2.0181 343.8242 343.1334 10.8110 330.1540 321.4786 357.7965 22.4424 33.8404 6.4880 355.5920 343.2171 312.6748 
-10.2073 84.5034 74.7153 354.4689 346.9937 197.9784 0.7660 348.0202 357.8905 359.9126 19.1068 357.8363 345.3939 347.1092 351.4900 5.4480 7.4670 352.7858 337.9264 357.1246 14.5763 332.2776 56.6631 327.4125 19.7584 347.6009 297.4784 95.2506 351.0544 354.7147 25.7884 355.9175 342.7022 52.9703 41.6898 357.5060 326.9998 340.7187 57.8010 267.2386 347.8750 351.0586 358.6821 15.3841 1.7147 358.1088 9.4498 1.9342 342.6440 343.7671 11.2358 330.5020 320.8716 357.3995 22.9616 35.2502 5.8276 355.8914 342.6370 313.4804 
-9.9475 84.5535 73.7716 354.6743 346.8076 197.8775 1.0802 348.0321 357.9753 0.2073 19.1834 357.8377 345.6054 346.9661 351.5587 4.9875 7.4726 352.8803 337.9549 357.1529 14.5381 331.7077 57.2451 327.6314 20.3990 347.3762 298.2909 95.5216 351.2606 355.3199 25.8743 355.9526 342.9019 52.5748 42.4545 358.1297 326.2051 340.8089 56.0611 267.4834 347.8647 350.9758 359.0211 15.0694 2.0122 358.2569 10.4106 1.9247 341.7914 344.5739 11.5909 330.8822 320.4871 357.0074 23.1062 36.3911 5.3212 356.4048 341.9637 314.2156 
-9.7092 84.6396 72.7881 354.7466 346.6546 197.7968 1.2646 348.0129 357.9967 0.4576 19.3333 357.7944 345.2856 347.1674 351.5298 5.5289 7.1716 352.8454 337.9814 357.1701 14.5623 331.3760 57.6568 327.7883 20.8036 347.2816 298.8095 95.5732 351.3974 356.0864 25.8614 355.9954 343.0269 52.1376 43.3331 358.9843 325.4574 341.0443 54.2524 267.4521 347.9663 350.6556 359.2662 14.8279 2.3846 358.3242 11.3216 2.1665 341.2784 345.6778 11.6311 331.3221 320.4550 356.6492 22.9738 37.2030 5.2684 356.4674 341.5059 314.6895 
-9.4823 84.7773 71.7857 354.6779 346.5335 197.7830 1.2567 348.0472 358.0026 0.7223 19.4396 357.7563 345.1275 347.4880 351.5231 5.8880 6.9603 352.8049 338.1756 357.1847 14.6395 330.9724 58.3467 327.8398 21.3507 347.0358 299.3246 95.4362 351.3747 356.7398 25.8662 356.0259 343.1311 51.6299 44.2689 359.7426 324.6530 341.2122 52.5785 267.1066 348.2799 350.4848 359.4290 14.5492 2.5840 358.3131 12.3261 3.0089 341.0600 347.0948 11.3144 331.7446 320.8001 356.4099 22.7731 37.6669 5.9045 355.9491 341.2036 314.4376 
-9.2733 84.9631 70.8113 354.5650 346.3490 197.8690 1.2855 348.0612 357.9580 0.7828 19.4733 357.6966 345.1993 347.7545 351.5463 6.0644 6.9241 352.7741 338.4740 357.2137 14.7685 330.9924 59.2035 327.4630 21.9379 346.7443 299.8960 95.2542 351.2599 357.2321 25.9750 356.0326 343.2166 51.0694 44.9483 0.4491 323.9546 341.4390 51.1486 266.7658 348.3816 350.0085 359.5188 14.0746 2.6584 358.2851 13.4870 3.7244 341.1781 348.4021 11.2194 332.0802 321.2662 356.1762 22.4745 38.0067 6.9826 355.2474 340.8934 313.7968 
-9.0598 85.1842 69.8599 354.4908 346.1522 198.0540 1.3177 348.1377 357.9006 0.8667 19.3596 357.6196 345.4494 347.9610 351.5498 5.9044 7.0497 352.7164 338.6860 357.2215 14.8549 331.3404 59.9807 327.0099 22.3200 346.5354 300.2285 95.3071 351.1982 357.5157 26.1178 356.0204 343.2432 50.4593 45.2493 1.0854 323.3984 341.6865 50.0047 266.8513 348.2624 349.6170 359.6106 13.4946 2.8351 358.3812 14.6927 3.8256 341.7557 349.6918 11.4907 332.4476 321.8212 356.0795 22.1870 38.1559 7.8609 354.6526 340.5201 313.1667 
-8.7728 85.4198 68.8862 354.6223 346.0614 198.3476 1.3338 348.3574 357.8745 1.2511 19.0407 357.5353 345.4653 348.2576 351.4876 5.8925 7.1575 352.6138 338.7767 357.2129 14.9434 331.1925 60.3817 327.1209 22.4074 346.6505 300.1709 95.5141 351.1565 357.4539 25.9742 356.0414 343.0277 50.0938 45.7992 1.8100 322.7683 341.7796 48.8296 266.6876 348.2514 349.6325 359.9793 12.7886 3.0996 358.4669 16.1093 3.8158 343.9539 351.2433 11.4599 333.1841 322.5376 356.4926 22.0327 37.8953 8.0306 354.1474 340.2974 312.7782 
-8.5371 85.6756 67.9836 354.6148 345.9214 198.5214 1.4033 348.6030 357.8821 1.2874 18.6854 357.5390 345.6521 348.5683 351.4831 5.8077 7.1770 352.5566 338.9804 357.2445 14.9722 330.4084 60.3226 327.8505 22.1549 346.9496 299.7257 95.7262 351.1065 357.1697 25.7797 356.0778 342.8745 49.9236 46.6655 2.4251 321.7939 341.6723 47.4822 266.8800 348.0715 349.6539 0.0393 12.0340 3.1115 358.5915 17.3737 4.1176 344.9951 352.3053 11.2794 333.7477 323.1443 357.0084 22.0070 37.6015 7.8217 353.6987 340.1443 312.6404 
-8.3199 85.9375 67.1151 354.4737 345.7096 198.5403 1.3038 348.7840 357.9550 1.4301 18.5038 357.6079 345.4787 348.4957 351.4075 5.9351 7.4073 352.4895 339.0929 357.2367 15.0611 329.6544 60.0834 328.5217 21.7907 347.2542 299.0204 96.0046 351.1345 357.0653 25.5524 356.1006 342.7614 49.6607 47.1562 3.0362 320.8992 341.6579 46.6099 266.5253 348.2059 348.9156 359.8916 11.1699 3.0088 358.4720 18.6051 5.0788 346.1430 353.1842 11.3505 334.1909 323.6018 357.5848 22.0087 37.3769 7.6479 353.2176 340.0749 312.4596 
-8.1031 86.1857 66.2611 354.3071 345.5322 198.5182 1.1415 349.0095 358.0620 1.6112 18.3276 357.7092 345.3005 348.4046 351.2901 6.0864 7.6098 352.3802 339.1136 357.2182 15.1676 329.3082 59.8276 328.9362 21.2850 347.5628 298.1514 96.3341 351.2794 357.0919 25.3570 356.1277 342.7185 49.5401 47.1410 3.3395 320.2491 341.7599 46.3117 265.9830 348.4925 347.8484 359.7138 10.3121 3.0109 358.2841 19.7200 5.8965 345.6276 353.0038 11.6046 334.6479 324.0659 358.1842 21.8648 37.1820 7.8669 352.8311 340.1018 312.1187 
-7.8407 86.4269 65.4160 354.2910 345.3664 198.5396 1.0164 349.2152 358.2150 1.8490 18.1419 357.8416 345.2951 348.2343 351.1140 6.1163 7.8583 352.1974 339.1355 357.1813 15.3952 329.6763 59.6732 328.6219 20.7584 347.7481 297.3933 96.1106 351.3021 356.9197 25.1621 356.1300 342.5740 49.4818 47.1194 3.6311 319.7308 341.7495 46.2398 265.5248 348.5024 347.0387 359.7280 9.4717 3.1505 358.0741 20.4571 6.1361 345.1398 352.3661 11.1362 335.3137 324.5109 358.8391 21.5242 36.9761 8.2284 352.3770 340.2483 311.7517 
-7.6063 86.7003 64.5944 354.2234 345.1989 198.5387 0.8424 349.3823 358.3772 2.0770 18.0282 357.9861 345.2263 348.0798 350.8784 6.3049 7.9596 351.9637 339.2354 357.1708 15.4271 329.4274 59.4986 328.8293 20.2032 347.9757 296.5588 96.4170 351.4811 357.0239 25.0077 356.1144 342.3952 49.3005 46.8686 3.9209 319.4784 341.7242 46.6163 265.0908 348.6377 346.2151 359.6061 8.7268 3.3716 357.9806 20.6219 6.3806 344.1098 351.9578 10.3452 335.9086 324.9941 359.4116 21.2159 36.6753 8.5209 351.9676 340.3460 311.2871 
-7.3887 86.9813 63.8410 354.2102 344.8300 198.6565 0.7845 349.4047 358.4724 2.0820 17.8083 358.0853 345.3436 347.9729 350.6778 6.4236 8.0018 351.7514 339.3931 357.1880 15.4715 329.4565 59.3554 328.7891 19.6775 348.1279 295.8249 96.6623 351.5584 357.1596 25.0033 356.0899 342.2914 49.1472 46.6379 3.9715 319.2772 341.5281 47.2343 264.6082 349.1332 345.2391 359.3977 7.6954 3.5734 357.8932 20.4865 6.5272 346.6039 351.3946 9.4412 336.2879 325.3753 359.6988 20.8756 36.2593 8.8406 351.5340 340.5940 310.9313 
